<?xml version="1.0" encoding="utf-8"?>
<!-- Generator: Adobe Illustrator 19.0.0, SVG Export Plug-In . SVG Version: 6.00 Build 0)  -->
<svg version="1.1" id="Layer_1" xmlns="http://www.w3.org/2000/svg" xmlns:xlink="http://www.w3.org/1999/xlink" x="0px" y="0px"
	 viewBox="0 0 500 500" style="enable-background:new 0 0 500 500;" xml:space="preserve">
<style type="text/css">
	.st0{fill:#4128C7;}
	.st1{fill:none;stroke:#4128C7;stroke-width:3;stroke-miterlimit:10;}
</style>
<g id="XMLID_1_">
	<path id="XMLID_7_" class="st0" d="M129.2,219.3c-12.6,0-24.3-2.1-35-6.4C83.4,208.7,74,202.6,66,194.7c-8-7.9-14.3-17.5-18.7-28.7
		c-4.5-11.3-6.7-24-6.7-38.2c0-13.7,2.2-26.2,6.7-37.6C51.8,78.9,58,69.2,66,61c8-8.2,17.4-14.5,28.2-19c10.8-4.5,22.5-6.7,35-6.7
		c6.9,0,13.9,0.7,21.2,2.1c7.3,1.4,14.7,3.4,22.2,6.2l-6.4,15.8c-7.2-2.3-13.7-3.9-19.6-4.9c-5.9-1-11.7-1.5-17.4-1.5
		c-8.5,0-16.6,1.6-24.3,4.7c-7.7,3.1-14.5,7.8-20.3,14c-5.9,6.2-10.5,14-14,23.4c-3.4,9.4-5.1,20.3-5.1,32.7
		c0,11.1,1.7,21.2,5.1,30.3c3.4,9.1,8.1,16.9,14,23.4c5.9,6.5,12.7,11.6,20.3,15.1c7.7,3.5,15.8,5.3,24.3,5.3
		c5.7,0,11.6-0.7,17.6-2.2c6-1.5,12.5-3.9,19.4-7.3l6.4,15.9c-7.7,4.1-15.1,7-22.3,8.7C143.1,218.4,136.1,219.3,129.2,219.3z"/>
</g>
<g id="XMLID_2_">
	<path id="XMLID_5_" class="st0" d="M379.8,430.3c-5.6,0-10.9-0.2-15.9-0.7c-5.1-0.5-11.2-1.6-18.4-3.4c2.3-4.2,5.3-7.8,9.1-10.5
		c3.8-2.8,8.4-3.9,14-3.4c2.6,0.3,4.6,0.5,6,0.5c1.4,0,3.1,0,5,0c7.8,0,15.1-2,21.9-5.9c6.8-3.9,12.7-9.3,17.8-16
		c5.1-6.8,9-14.7,11.9-23.8c2.9-9.1,4.3-18.7,4.3-29c0-23.7-6-41.9-18-54.8c-12-12.8-30.1-19.2-54.3-19.2c-4.9,0-9.7,0.2-14.5,0.5
		c-4.7,0.3-9.1,0.7-13,1.2v161.7h-23.3V252.2c7.8-1.8,16.5-3.2,25.8-4.3c9.4-1.1,17.7-1.6,24.9-1.6c15.5,0,29.3,2.1,41.4,6.2
		c12.1,4.2,22.3,10.2,30.5,18.1c8.2,7.9,14.5,17.5,18.9,28.9c4.3,11.3,6.5,24.2,6.5,38.5c0,13.4-2.2,25.7-6.5,36.9
		c-4.3,11.3-10.2,21-17.5,29.2c-7.3,8.2-15.9,14.6-25.6,19.2C401,428,390.7,430.3,379.8,430.3z"/>
</g>
<line id="XMLID_3_" class="st1" x1="73.1" y1="415.7" x2="413.4" y2="75.4"/>
<g id="XMLID_4_">
</g>
<g id="XMLID_9_">
</g>
<g id="XMLID_10_">
</g>
<g id="XMLID_11_">
</g>
<g id="XMLID_12_">
</g>
<g id="XMLID_13_">
</g>
<g id="XMLID_14_">
</g>
<g id="XMLID_15_">
</g>
<g id="XMLID_16_">
</g>
<g id="XMLID_17_">
</g>
<g id="XMLID_18_">
</g>
<g id="XMLID_19_">
</g>
<g id="XMLID_20_">
</g>
<g id="XMLID_21_">
</g>
<g id="XMLID_22_">
</g>
</svg>
